<svg id="Layer_1" data-name="Layer 1" xmlns="http://www.w3.org/2000/svg" width="347" height="535" viewBox="0 0 347 535"><defs><style>.cls-1{fill:#fff;stroke:#000;stroke-miterlimit:10;stroke-width:0.25px;}.cls-2{fill:#e25454;}.cls-3{fill:#565656;}</style></defs><title>cleo</title><polygon class="cls-1" points="156.95 501.2 156.95 147.08 152.95 147.08 152.95 504.53 307 504.53 307 501.2 156.95 501.2"/><path class="cls-1" d="M183.15,486.7l4.93.62a12.23,12.23,0,0,1-4.32,6.83,12.82,12.82,0,0,1-8.06,2.43q-6.18,0-9.8-3.87t-3.63-10.86q0-7.23,3.67-11.23a12.28,12.28,0,0,1,9.49-4,12,12,0,0,1,9.23,3.91q3.59,3.91,3.58,11c0,.29,0,.72,0,1.3h-21q.27,4.71,2.62,7.23a7.77,7.77,0,0,0,5.89,2.5,7.22,7.22,0,0,0,4.49-1.4A9.32,9.32,0,0,0,183.15,486.7Zm-15.68-7.85H183.2a9.77,9.77,0,0,0-1.8-5.42,7.27,7.27,0,0,0-5.92-2.81,7.54,7.54,0,0,0-5.53,2.24A9,9,0,0,0,167.47,478.85Z"/><path class="cls-1" d="M192,481.44q0-7.95,4.23-11.79a12.46,12.46,0,0,1,8.63-3.18,12,12,0,0,1,9.25,3.87q3.6,3.87,3.59,10.7a19.72,19.72,0,0,1-1.58,8.7,11.58,11.58,0,0,1-4.63,4.92,13,13,0,0,1-6.63,1.75,12.06,12.06,0,0,1-9.31-3.85Q192,488.69,192,481.44Zm4.78,0c0,3.67.76,6.42,2.3,8.24a7.45,7.45,0,0,0,11.55,0c1.53-1.84,2.3-4.63,2.3-8.39,0-3.54-.78-6.23-2.32-8a7.45,7.45,0,0,0-11.53,0C197.51,475,196.75,477.77,196.75,481.44Z"/><circle class="cls-2" cx="226.64" cy="492.2" r="3.67"/><path class="cls-3" d="M255.61,495.8v-3.62a8.73,8.73,0,0,1-7.88,4.26,11,11,0,0,1-6.19-1.88,12.37,12.37,0,0,1-4.38-5.28,18.56,18.56,0,0,1-1.55-7.78,20.66,20.66,0,0,1,1.41-7.79,11,11,0,0,1,10.5-7.21,9.27,9.27,0,0,1,4.54,1.09,9.58,9.58,0,0,1,3.23,2.85V456.25H260V495.8Zm-15.09-14.3q0,5.5,2.28,8.23a6.84,6.84,0,0,0,5.38,2.72,6.72,6.72,0,0,0,5.32-2.6q2.19-2.61,2.19-8,0-5.88-2.23-8.63a6.81,6.81,0,0,0-5.49-2.75,6.59,6.59,0,0,0-5.32,2.64Q240.52,475.8,240.52,481.5Z"/><path class="cls-3" d="M267.57,495.8V456.25h4.78V478.8l11.3-11.65h6.18l-10.77,10.63,11.86,18H285l-9.31-14.65-3.37,3.29V495.8Z"/><path class="cls-1" d="M243.65,392.89C224,412.44,200.36,423.84,175,423.84c-68.51,0-124-82.85-124-185.06S106.45,53.72,175,53.72c25.4,0,49,11.4,68.69,31V68.38c-19.89-16.12-42.87-25.33-67.36-25.33-75.5,0-136.71,87.48-136.71,195.4s61.21,195.39,136.71,195.39c24.49,0,47.47-9.21,67.36-25.33Z"/></svg>