<svg id="Layer_1" data-name="Layer 1" xmlns="http://www.w3.org/2000/svg" width="256" height="256" viewBox="0 0 256 256"><defs><style>.cls-1{fill:#fff;}</style></defs><title>bedk</title><path class="cls-1" d="M115.38,136.2v-21S117.94,85,149.66,83.49c0,0,26.1-1,33.78,27.64V136.2s0,4.09-3.07,4.09H119S115.38,139.27,115.38,136.2Z"/><path class="cls-1" d="M111.8,127s-3.07-31.22,18.42-42c0,0-10.24-15.35-28.66-14.84s-26.1,12.28-26.1,12.28a30.9,30.9,0,0,0-7.67,19.44v21.5a4.38,4.38,0,0,0,4.6,3.58Z"/><circle class="cls-1" cx="101.81" cy="48.95" r="18.16"/><circle class="cls-1" cx="149.4" cy="62.26" r="18.16"/><polygon class="cls-1" points="8.94 151.55 16.1 164.35 4.33 172.02 18.15 174.58 17.64 188.4 27.87 179.19 38.11 188.4 38.62 188.4 38.11 174.58 51.92 172.02 40.15 164.35 47.32 151.55 34.01 155.65 28.38 142.85 22.75 156.16 8.94 151.55 8.94 151.55"/><polygon class="cls-1" points="58.58 151.55 65.74 164.35 53.97 172.02 67.79 174.58 67.28 188.4 77.51 179.19 87.74 188.4 88.26 188.4 87.74 174.58 101.56 172.02 89.79 164.35 96.95 151.55 83.65 155.65 78.02 142.85 72.39 156.16 58.58 151.55 58.58 151.55"/><polygon class="cls-1" points="108.72 151.55 115.89 164.35 104.12 172.02 117.94 174.58 117.42 188.4 127.66 179.19 137.89 188.4 138.41 188.4 137.89 174.58 151.71 172.02 139.94 164.35 147.1 151.55 133.8 155.65 128.17 142.85 122.54 156.16 108.72 151.55 108.72 151.55"/><polygon class="cls-1" points="158.88 151.55 166.04 164.35 154.27 172.02 168.09 174.58 167.57 188.4 177.81 179.19 188.04 188.4 188.56 188.4 188.04 174.58 201.86 172.02 190.09 164.35 197.25 151.55 183.95 155.65 178.32 142.85 172.69 156.16 158.88 151.55 158.88 151.55"/><polygon class="cls-1" points="208.68 151.48 215.85 164.28 204.08 171.95 217.9 174.51 217.38 188.33 227.62 179.12 237.85 188.33 238.36 188.33 237.85 174.51 251.67 171.95 239.9 164.28 247.06 151.48 233.76 155.58 228.13 142.78 222.5 156.09 208.68 151.48 208.68 151.48"/><path class="cls-1" d="M44,218.35V198.17h5.21A5.33,5.33,0,0,1,53,199.46a4.33,4.33,0,0,1,1.37,3.33,5.61,5.61,0,0,1-.79,3,4.35,4.35,0,0,1-2.19,1.8v0a4.07,4.07,0,0,1,2.73,1.54,5.48,5.48,0,0,1,1,3.41,5.62,5.62,0,0,1-1.67,4.2,5.83,5.83,0,0,1-4.19,1.6Zm2.73-9v6.38H49a3.07,3.07,0,0,0,2.35-.86,3.31,3.31,0,0,0,.83-2.39c0-2.08-1.17-3.13-3.53-3.13Zm0-8.44v5.75h1.76a3,3,0,0,0,2.22-.82,3.17,3.17,0,0,0,.82-2.33c0-1.72-.94-2.59-2.81-2.59Z"/><path class="cls-1" d="M67.76,212h-8a4.72,4.72,0,0,0,1,3.09,3.33,3.33,0,0,0,2.62,1.08,5.08,5.08,0,0,0,3.45-1.36v2.63a6.9,6.9,0,0,1-4.24,1.24,4.83,4.83,0,0,1-4.05-2,9,9,0,0,1-1.46-5.52,8.68,8.68,0,0,1,1.62-5.46,4.88,4.88,0,0,1,4-2.11,4.25,4.25,0,0,1,3.72,1.9,9.24,9.24,0,0,1,1.31,5.28Zm-2.57-2.31a4.83,4.83,0,0,0-.68-2.73,2.13,2.13,0,0,0-1.83-1,2.39,2.39,0,0,0-1.94,1,5.24,5.24,0,0,0-1,2.69Z"/><path class="cls-1" d="M80.93,218.35H78.27v-2.44h0a4.17,4.17,0,0,1-4,2.77,4,4,0,0,1-3.46-1.93,9.21,9.21,0,0,1-1.29-5.27A10.13,10.13,0,0,1,71,205.75a4.34,4.34,0,0,1,3.82-2.14A3.58,3.58,0,0,1,78.25,206h0V197h2.65Zm-2.62-6.59v-1.87a4.22,4.22,0,0,0-.8-2.61,2.55,2.55,0,0,0-2.05-1.07,2.65,2.65,0,0,0-2.34,1.37,7.12,7.12,0,0,0-.85,3.78,6.47,6.47,0,0,0,.81,3.47,2.54,2.54,0,0,0,2.21,1.28,2.62,2.62,0,0,0,2.21-1.23,5.4,5.4,0,0,0,.81-3.11Z"/><path class="cls-1" d="M96.27,203.89l-1.77,2.3A9,9,0,0,1,95.69,211,8.66,8.66,0,0,1,94,216.64a5.41,5.41,0,0,1-4.43,2.05,5.28,5.28,0,0,1-3.69-1.36l-1.6,2.12-1.13-1.27L84.82,216a9,9,0,0,1-1.18-4.77,8.52,8.52,0,0,1,1.7-5.63,5.56,5.56,0,0,1,4.51-2,5.13,5.13,0,0,1,3.55,1.28l1.73-2.29Zm-4.47,3a2.66,2.66,0,0,0-2-.83,2.92,2.92,0,0,0-2.55,1.36,6.66,6.66,0,0,0-.93,3.77,6.91,6.91,0,0,0,.39,2.51Zm.91,1.6-5.23,6.86a3,3,0,0,0,2.22.88,2.84,2.84,0,0,0,2.53-1.33,6.82,6.82,0,0,0,.88-3.75A8,8,0,0,0,92.71,208.51Z"/><path class="cls-1" d="M115.9,218.4h-2.66v-7.85a7.36,7.36,0,0,0-.52-3.28,1.83,1.83,0,0,0-1.75-1,2.09,2.09,0,0,0-1.77,1.29,6.26,6.26,0,0,0-.73,3.06v7.8H105.8v-8.11c0-2.69-.77-4-2.3-4a2.08,2.08,0,0,0-1.78,1.21,6.43,6.43,0,0,0-.68,3.14v7.8H98.39V204H101v2.28h0a4,4,0,0,1,3.7-2.61,3.06,3.06,0,0,1,2.12.83,4.25,4.25,0,0,1,1.24,2.16c.87-2,2.16-3,3.89-3q3.85,0,3.86,5.87Z"/><path class="cls-1" d="M136.65,218.42H134v-7.85a7.65,7.65,0,0,0-.52-3.28,1.85,1.85,0,0,0-1.76-1,2.11,2.11,0,0,0-1.77,1.29,6.26,6.26,0,0,0-.73,3.06v7.8h-2.66v-8.13c0-2.69-.76-4-2.3-4a2,2,0,0,0-1.77,1.21,6.22,6.22,0,0,0-.68,3.14v7.79h-2.66V204h2.65v2.28h0a4,4,0,0,1,3.7-2.61,3.1,3.1,0,0,1,2.12.82,4.19,4.19,0,0,1,1.23,2.17c.88-2,2.17-3,3.9-3,2.58,0,3.86,2,3.86,5.88Z"/><path class="cls-1" d="M149.81,212.11h-8a4.68,4.68,0,0,0,1,3.08,3.32,3.32,0,0,0,2.63,1.09,5,5,0,0,0,3.44-1.36v2.63a6.79,6.79,0,0,1-4.23,1.24,4.79,4.79,0,0,1-4-2,9.08,9.08,0,0,1-1.47-5.52,8.81,8.81,0,0,1,1.63-5.46,4.86,4.86,0,0,1,4-2.12,4.21,4.21,0,0,1,3.71,1.91,9,9,0,0,1,1.31,5.27Zm-2.56-2.31a5,5,0,0,0-.68-2.73,2.08,2.08,0,0,0-1.84-1,2.36,2.36,0,0,0-1.94,1,5.18,5.18,0,0,0-1,2.68Z"/><path class="cls-1" d="M155,218.44h-2.67V197.11H155Z"/><path class="cls-1" d="M157.72,218v-3.05A4.64,4.64,0,0,0,161,216.3c1.61,0,2.41-.58,2.41-1.74a1.77,1.77,0,0,0-.21-.84,2.28,2.28,0,0,0-.55-.61,4.27,4.27,0,0,0-.83-.48l-1.06-.48a11.1,11.1,0,0,1-1.29-.75,3.87,3.87,0,0,1-1-.89,3.67,3.67,0,0,1-.58-1.13,5.27,5.27,0,0,1-.19-1.48,3.94,3.94,0,0,1,1.48-3.17,4.81,4.81,0,0,1,1.53-.82,6,6,0,0,1,1.78-.27,6.9,6.9,0,0,1,2.9.61v2.86a4.21,4.21,0,0,0-2.83-1.05,3.08,3.08,0,0,0-.91.13,2.25,2.25,0,0,0-.69.35,1.54,1.54,0,0,0-.44.54,1.45,1.45,0,0,0-.16.68,1.56,1.56,0,0,0,.63,1.37,4,4,0,0,0,.75.45l1,.44a14,14,0,0,1,1.36.77,5.15,5.15,0,0,1,1,.89,4.11,4.11,0,0,1,.68,1.16,4.81,4.81,0,0,1,.22,1.55,4.1,4.1,0,0,1-.41,1.92,3.94,3.94,0,0,1-1.1,1.36,4.54,4.54,0,0,1-1.58.8,7.19,7.19,0,0,1-1.9.26A6.72,6.72,0,0,1,157.72,218Z"/><path class="cls-1" d="M178.48,212.14h-8a4.67,4.67,0,0,0,1,3.09,3.33,3.33,0,0,0,2.62,1.08,5.08,5.08,0,0,0,3.41-1.36v2.63a6.72,6.72,0,0,1-4.23,1.23,4.8,4.8,0,0,1-4.06-2,9.11,9.11,0,0,1-1.46-5.52,8.75,8.75,0,0,1,1.63-5.46,4.87,4.87,0,0,1,4-2.11,4.25,4.25,0,0,1,3.72,1.9,9.16,9.16,0,0,1,1.31,5.28Zm-2.57-2.31a4.83,4.83,0,0,0-.68-2.73,2.1,2.1,0,0,0-1.83-1,2.39,2.39,0,0,0-1.94,1,5.24,5.24,0,0,0-1,2.69Z"/><path class="cls-1" d="M182.09,218.77a1.46,1.46,0,0,1-1.16-.56,2,2,0,0,1-.48-1.33,2,2,0,0,1,.48-1.36,1.5,1.5,0,0,1,2.35,0,2.08,2.08,0,0,1,0,2.68A1.49,1.49,0,0,1,182.09,218.77Z"/><path class="cls-1" d="M197.3,218.48h-2.66V216h0a4.15,4.15,0,0,1-4,2.78,4,4,0,0,1-3.46-1.93,9.54,9.54,0,0,1-1.29-5.27,10.3,10.3,0,0,1,1.44-5.73,4.4,4.4,0,0,1,3.83-2.14,3.54,3.54,0,0,1,3.41,2.33h.05v-8.93h2.66Zm-2.62-6.59V210a4.19,4.19,0,0,0-.81-2.61,2.5,2.5,0,0,0-2.05-1.07,2.64,2.64,0,0,0-2.34,1.36,7.13,7.13,0,0,0-.86,3.78,6.42,6.42,0,0,0,.82,3.48,2.5,2.5,0,0,0,2.2,1.27,2.56,2.56,0,0,0,2.21-1.23,5.31,5.31,0,0,0,.83-3.1Z"/><path class="cls-1" d="M211.39,218.49H208l-4.55-6.92h0v6.92h-2.67V197.16h2.67v13.52h0l4.31-6.6H211L206.14,211Z"/></svg>