<svg id="Layer_1" data-name="Layer 1" xmlns="http://www.w3.org/2000/svg" width="512" height="256" viewBox="0 0 512 256"><title>elleebana_bk</title><path d="M246.19,48a20.43,20.43,0,0,1-2.44,8.12,30.51,30.51,0,0,1-6.37,8.35,4.11,4.11,0,0,1-4,.85,18.27,18.27,0,0,1-3.73-1.28c-7.34-3.37-14.93-5.93-23.1-5.57a50.88,50.88,0,0,0-10.28,2c-4.07,1.06-8.07,2.43-12.12,3.6A3.88,3.88,0,0,1,180,63a24,24,0,0,1-7.19-19,1.48,1.48,0,0,1,.76-1.1c4.7-1.7,9.44-3.25,14.48-3.56,5.59-.35,10.7,1.4,15.44,4.11,5.42,3.1,11.08,5.52,17.31,6.08a86.56,86.56,0,0,0,12.68,0C237.65,49.24,241.82,48.54,246.19,48Z"/><path d="M267.64,101.28v29.53c.75-.33,1.29-.54,1.8-.81,4.71-2.53,9.68-3.75,15-2.76,6.52,1.21,10.81,5.24,13,11.24a31.7,31.7,0,0,1-1.87,27c-3.5,6.52-9.18,9.29-16.59,8.37a36.1,36.1,0,0,1-12.87-3.58l-.68-.35c-3.46-1.64-5.06-3.94-5-8.19.29-18.72.14-37.46.1-56.19,0-1.43.32-2.24,1.83-2.59C264.12,102.59,265.72,101.92,267.64,101.28Zm0,49h.08c0,4.54,0,9.08,0,13.62a2.86,2.86,0,0,0,.87,2.09A18,18,0,0,0,281.38,169c4.34-.61,6.72-3.69,8.1-7.51a34,34,0,0,0,.63-21.61,10.45,10.45,0,0,0-9.69-8c-4.08-.4-7.7,1-11.3,2.6a2.34,2.34,0,0,0-1.54,2.48C267.66,141.39,267.61,145.83,267.61,150.27Z"/><path d="M402.63,134.81l-1.87-4.28a78.12,78.12,0,0,1,7.65-2.72c4.8-1.17,9.66-1.54,14.42.33a12.86,12.86,0,0,1,8.51,12.37c-.15,8.16,0,16.32-.07,24.49a2.94,2.94,0,0,1-.72,2A26.41,26.41,0,0,1,408,173.56c-7.24-1.19-12.05-8.13-11.46-15.93a13.7,13.7,0,0,1,13.23-12.31c4.28-.19,8.57-.12,12.86-.07,1.38,0,2-.4,1.82-1.84a40.48,40.48,0,0,0-.23-4.56c-.9-4.17-4.82-7.08-9.5-7.18a22.54,22.54,0,0,0-9.36,1.91C404.53,133.94,403.71,134.33,402.63,134.81Zm21.7,22.86c0-2.24,0-4.48,0-6.72,0-.87-.29-1.29-1.25-1.27-3.21,0-6.42-.05-9.63.07-4.49.16-8,2.61-9.14,6.19a10.13,10.13,0,0,0,3.53,10.92c4.23,3.38,12.3,2.84,15.91-1.11a2.78,2.78,0,0,0,.55-1.66C424.37,162,424.33,159.81,424.33,157.67Z"/><path d="M334.1,145.06a37.91,37.91,0,0,0-.35-6.48c-1.06-4.7-6.32-7.75-11.69-6.78-3.27.59-6.46,1.64-10,2.57l-1.56-3.57a26.93,26.93,0,0,1,9.17-3.38c4.05-.66,8.1-.92,12.09.44,4.73,1.61,9.37,6,9.18,12.84-.21,8.06-.07,16.13,0,24.2a3,3,0,0,1-1.22,2.6c-6.46,5.21-13.81,7.45-22,6.07-7.22-1.22-12-8-11.56-15.59.43-6.95,6.12-12.36,13.54-12.69,4.08-.17,8.17,0,12.26-.07C332.57,145.21,333.22,145.13,334.1,145.06Zm-.2,12.65c0-2.25,0-4.49,0-6.74,0-.85-.24-1.31-1.23-1.29-3.21.06-6.43-.06-9.65.07-4.52.19-8,2.64-9.12,6.23a10,10,0,0,0,3.62,10.91c4.17,3.33,12.16,2.8,15.8-1.1a2.69,2.69,0,0,0,.55-1.66C333.94,162,333.91,159.85,333.9,157.71Z"/><path d="M351.69,153.43c0-5.87,0-11.73,0-17.6a2.6,2.6,0,0,1,1.22-2.41A33.37,33.37,0,0,1,374.43,127a16.19,16.19,0,0,1,8.74,2.86,10.21,10.21,0,0,1,4.68,8.79q0,16.4,0,32.77c0,1.34-.41,1.84-1.75,1.74a31.09,31.09,0,0,0-4,0c-1.19.07-1.58-.35-1.57-1.57.06-6,0-12,0-18.07,0-3.57-.06-7.14,0-10.71.15-7.93-5.54-12.06-13.09-10.95-2.5.37-4.87,1.67-7.3,2.56-1.05.39-1.33,1.16-1.32,2.28,0,11.48,0,23,0,34.44,0,2,0,2-2,2-1.22,0-2.45-.07-3.67,0s-1.58-.44-1.57-1.61C351.71,165.48,351.69,159.45,351.69,153.43Z"/><path d="M178.37,149.69a21.6,21.6,0,0,0,2.28,12.68c2.1,3.92,5.26,6.43,9.83,6.9a21.18,21.18,0,0,0,9.42-1.46c1.62-.58,3.19-1.31,4.73-1.95.16.1.28.13.32.21,2,3.82,1.84,2.92-1.29,4.69a26.39,26.39,0,0,1-18.22,2.76c-5.85-1.07-9.72-4.88-12.07-10.1-4.37-9.68-3.75-19.33,1.38-28.48,3.78-6.73,10.1-8.34,16.77-7.56,9.18,1.07,12.45,7.3,13.8,14.3.4,2,.44,4.15.68,6.22.16,1.35-.25,1.85-1.73,1.83-8-.08-15.94,0-23.91,0Zm.24-4.42a3.71,3.71,0,0,0,.86.23l18.2,0c1,0,1.21-.49,1.13-1.36a18.4,18.4,0,0,0-2.33-8.13,8.74,8.74,0,0,0-15.16-.15A18.35,18.35,0,0,0,178.61,145.27Z"/><path d="M115.19,165.76l1.73,3.6c-2.65,1.19-5.12,2.51-7.73,3.41a26.65,26.65,0,0,1-12.23,1c-6-.8-10.28-4.23-12.85-9.52-4.86-10-4.3-20,1.17-29.55,3.74-6.53,10.09-8,16.61-7.28,9.18,1.08,12.66,7.49,13.94,15.24.29,1.7.41,3.44.59,5.16s.09,1.91-1.71,1.91c-8.12,0-16.24,0-24.37,0-1.45,0-1.81.46-1.8,1.83a23,23,0,0,0,2.12,10.23c3,6.05,8.33,8.76,14.89,7.31a78.37,78.37,0,0,0,7.83-2.52C114,166.32,114.49,166.05,115.19,165.76ZM109,145.36a16.59,16.59,0,0,0-1.85-8.67c-1.53-2.95-3.83-4.86-7.27-5.05-3.78-.21-6.8,1.32-8.43,4.66a49.18,49.18,0,0,0-2.53,7.93c-.3,1.05.4,1.3,1.31,1.3H108A7.75,7.75,0,0,0,109,145.36Z"/><path d="M248.39,166l1.57,3.13c-1.76.93-3.4,1.94-5.15,2.7a27.41,27.41,0,0,1-15,1.81,15.9,15.9,0,0,1-12.44-9.13c-5-9.88-4.5-19.86.71-29.44,3.69-6.81,10.15-8.54,17-7.72,8.91,1.08,12.48,7.22,13.8,14.85.34,1.95.41,3.95.65,5.92.14,1.2-.3,1.57-1.53,1.56-7.92-.05-15.84,0-23.75,0-2.69,0-2.84-.43-2.53,2.67a32.86,32.86,0,0,0,1.89,8.88c2.59,6.4,8.42,9.29,15.16,7.75C242,168.28,245.05,167.08,248.39,166ZM232,145.52c3,0,5.92,0,8.88,0,.93,0,1.59-.31,1.37-1.32a43.86,43.86,0,0,0-1.92-7.33,8.05,8.05,0,0,0-7.6-5.25,8.41,8.41,0,0,0-8.37,5.07c-1,2.22-1.45,4.73-2.19,7.1-.42,1.34.12,1.75,1.4,1.74C226.34,145.5,229.15,145.53,232,145.52Z"/><path d="M174.38,37.38a1.67,1.67,0,0,1,0-.38c2.73-6.05,4.46-7.19,11.78-8.11a54.43,54.43,0,0,1,20.12,1.62A72.74,72.74,0,0,0,216.08,32a44.91,44.91,0,0,0,13.54-.59,16.66,16.66,0,0,0,8.3-3.71,20.85,20.85,0,0,1,7.24,10.81c1.51,5.21,1.86,4.31-3,5.29-9.59,1.93-19.22,2.64-28.6-1-3.5-1.37-6.81-3.23-10.26-4.75a34,34,0,0,0-14.62-3.35A42,42,0,0,0,175.48,37C175.16,37.15,174.82,37.24,174.38,37.38Z"/><path d="M134.55,101.27v2.13q0,29.25,0,58.51a13.62,13.62,0,0,0,.46,3.77c1,3.26,3.67,4.25,6.66,4.39,2.13.09,1.25,1.48,1.43,2.46.22,1.22-.47,1.5-1.52,1.41a44.38,44.38,0,0,1-5.31-.43c-5.59-1.16-8.84-5.1-8.86-10.87-.05-19.3,0-38.6,0-57.9,0-.84.22-1.29,1.08-1.53C130.43,102.65,132.35,102,134.55,101.27Z"/><path d="M157.64,101.29V161c0,.56,0,1.13,0,1.69.2,4.8,2.31,7.13,7.11,7.44,2.14.13,1.2,1.54,1.38,2.5.24,1.27-.58,1.35-1.56,1.37a17.85,17.85,0,0,1-7.49-1.16c-4.13-1.77-6.38-4.9-6.39-9.37-.06-19.5,0-39,0-58.48,0-1,.29-1.59,1.31-1.87C153.76,102.56,155.53,102,157.64,101.29Z"/><path d="M204,79.52c0-1.65.07-3,0-4.25-.1-1.47.56-2.27,2-2.32a9.53,9.53,0,0,1,3.11.33c.41.13.83,1,.86,1.51.1,2,0,4.06,0,6.55.68-.63,1-1,1.44-1.33a64.84,64.84,0,0,1,5.72-4.52,2.41,2.41,0,0,1,3.57,1.19,2.13,2.13,0,0,1-.81,3c-4.35,3-7.62,6.89-8.49,12.22a54,54,0,0,0-.21,8.55c0,4.1,0,4.1,4,4.1,3,0,5.92-.06,8.88,0a8.29,8.29,0,0,1,2.91.75,1.78,1.78,0,0,1,1,2.44,2.37,2.37,0,0,1-1.83.87q-19.07.08-38.14,0c-.55,0-1.5-.2-1.57-.49a3.34,3.34,0,0,1,.18-2.16,2.78,2.78,0,0,1,2.79-1.48c4.54,0,9.09,0,13.63,0,1.27,0,1.68-.38,1.65-1.65-.08-3.06-.15-6.13,0-9.19.23-4.74-1.94-8.2-5.53-11a23.8,23.8,0,0,0-2.7-1.73c-1.6-.92-1.9-1.61-1.28-3a2.63,2.63,0,0,1,3.23-1.3,42.6,42.6,0,0,1,3.85,1.86C202.74,78.78,203.2,79.06,204,79.52Z"/><path d="M186.54,23.61c11.75-9,36.52-8.37,47,.88a15.5,15.5,0,0,1-6.45,2.05c-8,1.22-15.79.27-23.59-1.58A91.87,91.87,0,0,0,192,23.23,30.85,30.85,0,0,0,186.54,23.61Z"/><path d="M133.35,196.42v9.81c0,2.81,0,5.61,0,8.42,0,1-.33,1.34-1.33,1.35s-1.27-.44-1.27-1.39c0-6.68,0-13.36,0-20.05,0-.58.38-1.65.64-1.67,1-.08,2.27-.61,3,.68s1.76,2.75,2.6,4.14q4.11,6.81,8.19,13.62c.1.16.23.29.46.59,0-2.34,0-4.48,0-6.62,0-3.72,0-7.45-.06-11.17,0-1.11.44-1.37,1.46-1.38s1.2.56,1.2,1.44c0,6.73,0,13.46,0,20.2,0,.51-.38,1.47-.55,1.46a4.9,4.9,0,0,1-2.76-.58,11.09,11.09,0,0,1-1.93-2.91q-4.62-7.65-9.21-15.32C133.76,196.89,133.63,196.76,133.35,196.42Z"/><path d="M230.26,69.81c-2.08.75-4.26,1.59-6.48,2.28a2.28,2.28,0,0,1-1.67-.37c-5.26-3.66-11.11-4.53-17.33-3.9-3.61.37-7.05,1.1-9.78,3.76a1,1,0,0,1-.8.2c-2.44-1-4.85-2-7.28-3l.1-.51c1.11-.29,2.23-.52,3.3-.89,3.52-1.18,7-2.62,10.54-3.57a27.47,27.47,0,0,1,20.56,2.37C224.19,67.61,227.21,68.57,230.26,69.81Z"/><path d="M126.72,204.51a31.5,31.5,0,0,1-.84,4.53c-1.87,5.68-6.12,7.51-10.4,7.38-5.32-.15-9-3.77-9.87-9-.69-4.22-.16-8.18,2.64-11.53s6.58-4.13,10.68-3.17,6.36,4,7.31,8A34.18,34.18,0,0,1,126.72,204.51Zm-3,0a12.46,12.46,0,0,0-1.91-6.72,6.9,6.9,0,0,0-11.23-.57c-3,3.71-3,10.68,0,14.41a6.86,6.86,0,0,0,11-.16A12.28,12.28,0,0,0,123.72,204.46Z"/><path d="M238.28,204.31c.06,3.55-.76,6.84-3.46,9.31a10.17,10.17,0,0,1-11.22,2c-4-1.57-5.9-4.9-6.35-9s.06-7.88,3-11c3.19-3.39,7.15-4,11.37-2.59s5.95,4.71,6.55,8.81A22.21,22.21,0,0,1,238.28,204.31Zm-2.92.85c0-3.54-.66-5.91-2.07-7.81a6.91,6.91,0,0,0-11-.17c-2.89,3.65-3.05,10.06-.37,13.93a6.9,6.9,0,0,0,11.67-.2A10.46,10.46,0,0,0,235.36,205.16Z"/><path d="M195.73,204.35c0-3.42,0-6.84,0-10.25,0-1,.29-1.36,1.31-1.34s1.41.24,1.39,1.28c0,2.3,0,4.59,0,6.89,0,1.19.28,1.75,1.63,1.71,2.8-.1,5.61-.09,8.42,0,1.31,0,1.82-.3,1.76-1.7-.11-2.29,0-4.59-.06-6.88,0-1.21.57-1.3,1.51-1.3s1.39.16,1.38,1.25q-.06,10.34,0,20.67c0,1.18-.55,1.31-1.5,1.31s-1.41-.2-1.38-1.27c.06-2.76,0-5.51,0-8.27,0-1-.24-1.52-1.35-1.51q-4.52.06-9,0c-1.1,0-1.41.51-1.4,1.5,0,2.7,0,5.41,0,8.11,0,1.05-.36,1.45-1.42,1.44s-1.29-.45-1.28-1.4C195.76,211.19,195.73,207.77,195.73,204.35Z"/><path d="M321.72,204.23c0-3.31,0-6.63,0-9.95,0-.91,0-1.52,1.26-1.54s1.38.61,1.37,1.61c0,2.24,0,4.49,0,6.73,0,1.07.25,1.58,1.45,1.55,3-.07,6,0,9,0,1,0,1.36-.37,1.34-1.34,0-2.4,0-4.8,0-7.19,0-1,.32-1.35,1.32-1.33s1.38.26,1.38,1.29q0,10.33,0,20.66c0,1-.49,1.27-1.41,1.29s-1.3-.44-1.29-1.39c0-2.7,0-5.41,0-8.11,0-1.11-.37-1.57-1.49-1.56q-4.44.06-8.88,0c-1.16,0-1.48.52-1.46,1.6.05,2.7,0,5.4,0,8.11,0,1-.33,1.35-1.32,1.35s-1.33-.38-1.32-1.36C321.75,211.17,321.72,207.7,321.72,204.23Z"/><path d="M281.36,215.73c1.7-5,3.35-9.87,5-14.73.81-2.41,1.7-4.8,2.43-7.23.35-1.14,1.13-1,1.93-1s1.84-.39,2.28.91c2.4,7.14,4.85,14.26,7.28,21.39a2.19,2.19,0,0,1,0,.57c-2.17.72-2.68.49-3.34-1.44-.51-1.5-.93-3-1.56-4.47a2.15,2.15,0,0,0-1.45-1.14,50.61,50.61,0,0,0-6.28,0,2.15,2.15,0,0,0-1.44,1.14c-.61,1.4-1,2.88-1.49,4.33C284.1,216.17,283.88,216.28,281.36,215.73Zm13.15-9.28-3.69-11.22-3.61,11.22Z"/><path d="M153.78,204.34c0-3.42,0-6.83,0-10.25,0-1,.31-1.34,1.31-1.33,3.27.05,6.54,0,9.8,0,.83,0,1.36.13,1.36,1.15s-.52,1.15-1.35,1.14c-2.25,0-4.5,0-6.74,0-1.08,0-1.61.24-1.54,1.44a41.64,41.64,0,0,1,0,4.74c-.07,1.2.36,1.66,1.55,1.62,2-.05,4,0,6,0,.75,0,1.72-.29,1.69,1.09s-1,1-1.76,1c-2,0-4,.06-6,0-1.12,0-1.54.39-1.49,1.53.08,1.94.09,3.88,0,5.82-.06,1.26.47,1.59,1.61,1.57,2.4,0,4.8,0,7.2,0,.78,0,1.4.06,1.37,1.12s-.63,1-1.33,1c-3.42,0-6.84,0-10.26,0-1.2,0-1.44-.48-1.42-1.55C153.81,211.08,153.78,207.71,153.78,204.34Z"/><path d="M315.56,195.16a54,54,0,0,0-5.76-.37,3.49,3.49,0,0,0-3.23,2.82,3.43,3.43,0,0,0,1.69,3.8c1.22.72,2.56,1.25,3.85,1.85,2.07,1,4.05,2.06,4.79,4.43a6.35,6.35,0,0,1-5.27,8.39,21.28,21.28,0,0,1-6.36-.29c-2.13-.35-2.18-.73-1.35-2.81a40,40,0,0,0,4.54,1.1,5.16,5.16,0,0,0,5.2-1.86,3.92,3.92,0,0,0-1.26-5.72,38.32,38.32,0,0,0-4.14-2c-1.84-.85-3.51-1.94-4.25-3.95a6.07,6.07,0,0,1,5.11-8,16.83,16.83,0,0,1,5.15.19C316.42,193.15,316.41,193.31,315.56,195.16Z"/><path d="M178.11,212.82c2.26.92,4.45,1.73,6.87,1.13a4,4,0,0,0,3.35-3.16,3.81,3.81,0,0,0-1.9-4.31c-1.27-.74-2.75-1.13-4-1.92a13.66,13.66,0,0,1-3.93-3.23c-1.77-2.52-.61-6.16,2.12-7.8a10.88,10.88,0,0,1,9.55,0l-.5,1.71a47,47,0,0,0-5.65-.43,3.54,3.54,0,0,0-3.45,2.95,3.68,3.68,0,0,0,2.07,3.92c1.37.77,2.87,1.31,4.29,2,2.32,1.12,4.1,2.7,4.29,5.48a6.24,6.24,0,0,1-5.64,7,23,23,0,0,1-6.5-.39C177.1,215.34,177.07,214.94,178.11,212.82Z"/><path d="M383,192.78c1.43,0,2.86,0,4.28,0,.78,0,1.82-.38,1.85,1.09s-1,1.16-1.77,1.16c-2.2,0-4.39,0-6.58,0-.91,0-1.29.29-1.27,1.23.05,1.84.06,3.67,0,5.51,0,1.06.34,1.46,1.41,1.43,2.09-.05,4.18,0,6.27,0,.93,0,1.25.3,1.24,1.24s-.51,1.05-1.26,1c-2.14,0-4.29,0-6.43,0-.94,0-1.25.32-1.23,1.24,0,2.65,0,5.3,0,7.95,0,1.14-.46,1.36-1.45,1.37s-1.44-.29-1.43-1.39q.06-10.25,0-20.5c0-1.14.45-1.38,1.45-1.34C379.68,192.82,381.32,192.78,383,192.78Z"/><path d="M239.06,195.05v-2.17c.53,0,1-.09,1.51-.1h14.09c.82,0,1.62-.15,1.6,1.18s-.92,1.07-1.67,1.08c-1.38,0-2.77.08-4.14,0s-1.56.45-1.55,1.61c0,6,0,11.94,0,17.91,0,1.2-.46,1.47-1.54,1.45s-1.16-.72-1.16-1.54c0-4.9,0-9.8,0-14.69,0-1.52.34-3.51-.45-4.39s-2.78-.28-4.24-.33C240.78,195,240,195.05,239.06,195.05Z"/><path d="M391.18,192.78H406.7c.82,0,1.62-.15,1.61,1.17s-.92,1.08-1.68,1.09c-1.38,0-2.76.08-4.13,0s-1.57.45-1.56,1.6c0,6,0,12,0,17.92,0,1.19-.46,1.47-1.54,1.45s-1.16-.72-1.16-1.53c0-5.11,0-10.21,0-15.31,0-.87,0-1.74,0-2.61,0-1.07-.31-1.6-1.49-1.52s-2.66,0-4,0C390.89,195.05,390.89,195,391.18,192.78Z"/><path d="M351.8,204.18c0-3.36,0-6.73,0-10.09,0-1.16.49-1.32,1.47-1.33s1.42.27,1.41,1.38c0,5.91,0,11.82,0,17.73,0,2,0,2,2.05,2,2.24,0,4.49,0,6.73,0,.8,0,1.38.08,1.36,1.13s-.66,1-1.34,1c-3.42,0-6.84,0-10.25,0-1.06,0-1.42-.34-1.4-1.41C351.84,211.11,351.8,207.65,351.8,204.18Z"/><path d="M269.22,203.3c0,3,0,5.92,0,8.88,0,1.27.45,1.72,1.7,1.69,2.3-.07,4.6,0,6.9,0,.71,0,1.45-.11,1.47,1s-.62,1.11-1.39,1.11c-3.32,0-6.64,0-10,0-1.08,0-1.4-.39-1.4-1.44q.06-10.19,0-20.37c0-1,.29-1.43,1.38-1.43s1.34.56,1.33,1.51C269.2,197.27,269.21,200.29,269.22,203.3Z"/><path d="M368.34,204.34c0-3.42,0-6.84,0-10.25,0-1.17.49-1.32,1.47-1.33s1.42.26,1.42,1.37q-.07,10.26,0,20.51c0,1.15-.48,1.35-1.46,1.36s-1.44-.31-1.42-1.4C368.38,211.18,368.34,207.76,368.34,204.34Z"/></svg>