<svg id="Layer_1" data-name="Layer 1" xmlns="http://www.w3.org/2000/svg" width="256" height="256" viewBox="0 0 256 256"><title>face_wh</title><path d="M176.77,256V156.86h33.12c1.67-12.91,3.31-25.63,5-38.67-12.79-.06-25.41,0-38.24,0V116c0-7.46,0-14.93,0-22.39a41.28,41.28,0,0,1,.52-6.57c1.17-6.8,5-10.57,11.82-11.71a46.39,46.39,0,0,1,7.16-.56c5.86-.08,11.73,0,17.6,0h2.42c.09-11.57,0-22.93,0-34.47-1-.16-1.9-.35-2.8-.42-11-.84-21.94-1.68-32.94-.92a49.38,49.38,0,0,0-19.7,5.44C147.94,51.11,140.93,62.08,138.05,76a64,64,0,0,0-1.28,13.11q0,13.29,0,26.59v2.37h-33c-.51,1.57-.69,35.06-.24,38.75,5.46.08,11,0,16.45,0h16.65v99c-.76,0-1.41.1-2.05.1q-60,0-120,0A14.47,14.47,0,0,1,0,241.32Q.12,127.93,0,14.54A14.33,14.33,0,0,1,11.15.33a19.46,19.46,0,0,1,4-.31c8.8,0,17.59,0,26.39,0q99.38,0,198.74,0a21.62,21.62,0,0,1,5.15.47A14,14,0,0,1,256,13.9c0,.4,0,.8,0,1.2q0,112.89,0,225.78a14.78,14.78,0,0,1-3.58,10.31,14.07,14.07,0,0,1-11,4.79H176.77Z"/></svg>