<svg id="Layer_1" data-name="Layer 1" xmlns="http://www.w3.org/2000/svg" width="256" height="256" viewBox="0 0 256 256"><title>insta_wh</title><path d="M2.27,127.5c.9-21.29-.13-42.7,1.93-63.88C7.36,31.15,31.27,7,63.86,4.26c25.84-2.14,51.9-1.95,77.87-2.07a475.57,475.57,0,0,1,50.38,1.95c32.57,3.32,56,27,59.84,59.44A213.85,213.85,0,0,1,253.66,89c0,31.49.18,63-.86,94.45-.85,25.6-11,46.8-34.22,60.07a69.39,69.39,0,0,1-33.88,9.29c-37.8.39-75.63.93-113.41-.1C38.59,251.81,14.88,233.6,6.78,204c-3.17-11.56-3.71-24-4.35-36-.71-13.46-.16-27-.16-40.48Zm126-101.6c0,.51,0-.51,0,0-18.82,0-37.68-.73-56.46.17-27.68,1.33-44.87,18-45.61,45.74q-1.53,56.18,0,112.42c.74,27.71,18,44.89,45.65,45.62q56.18,1.49,112.42,0c27.6-.73,44.33-18.08,45.75-45.68,1-20.29,1.1-40.64,1.11-61,0-17.49-.29-35-1.18-52.46-.65-12.82-5-24.41-15-33.28C206.44,29.92,196,28.21,185,27.66,166.07,26.71,147.2,26.43,128.22,25.9Z"/><path d="M127.83,192.74c-35.66-.15-64.89-29.64-64.57-65.17s29.52-64.45,64.91-64.31c35.68.14,64.91,29.64,64.57,65.15S163.21,192.88,127.83,192.74Zm.08-22.76A42,42,0,1,0,86,127.91,42.08,42.08,0,0,0,127.91,170Z"/><path d="M195,45.78a14.78,14.78,0,0,1,15.22,15A15.07,15.07,0,0,1,195.45,75.9,15.45,15.45,0,0,1,180.1,60.75,15.1,15.1,0,0,1,195,45.78Z"/></svg>