<svg id="Layer_1" data-name="Layer 1" xmlns="http://www.w3.org/2000/svg" width="512" height="256" viewBox="0 0 512 256"><title>olaplex</title><path d="M98.31,135.2C97.26,157,81.76,173,60.49,172.88c-22.86-.18-36.95-17-37.71-37.06C22,116.27,41.45,95.92,60.21,97.15c10.16.67,20.32,4.37,27.68,12.4A39.08,39.08,0,0,1,98.31,135.2Zm-67.81.39c-.93,17.65,13.59,30.74,29.8,30.68,17.07-.06,30.8-12.83,30.55-31.29-.23-16.8-13.39-29.74-30.44-30.16C45.53,104.46,29.34,118.25,30.5,135.59Z"/><path d="M414.3,106.69H397c-3.95,0-7.9.07-11.84,0-2.77-.06-3.92,1-3.81,3.89.19,5,.19,9.94,0,14.9-.11,2.92,1,3.8,3.81,3.75,8.19-.13,16.38,0,24.57-.05h4.93v6.72h-22.7c-10.56,0-10.56,0-10.56,10.47,0,4.67.19,9.35-.05,14-.16,3.08.79,4,3.93,4,9.63-.2,19.26-.07,29.26-.07v6.48H374.41c-.09-1.12-.29-2.37-.29-3.61,0-20.89.07-41.77-.08-62.66,0-3.63,1-4.8,4.69-4.72,10.23.21,20.47.07,30.7.07C415.33,99.85,415.49,100.06,414.3,106.69Z"/><path d="M235.36,170.49c-5.09,1.54-7.65.36-9.31-4.21a118.52,118.52,0,0,0-7.53-15.56,5.52,5.52,0,0,0-3.82-2.66c-8.63-.24-17.27-.27-25.9,0a6.1,6.1,0,0,0-4.27,2.85c-2.72,4.94-5.05,10.1-7.43,15.23-2.62,5.66-2.6,5.71-9.46,4.34L201,100.15l1.38-.16Zm-33.08-54.64-1.32.07-11.65,24.54h24.62Z"/><path d="M261.55,138.19v32.63h-6.87c-.07-1.38-.22-2.77-.22-4.15,0-20.62.12-41.23-.11-61.84,0-4.28,1.49-5.25,5.34-5,7.29.41,14.62.3,21.92.77,10.42.67,17.5,8.28,17.45,18.22-.05,9.24-5.81,17-16.44,18.21-3.47.39-6.92.94-10.4,1.15C268.9,138.34,265.55,138.19,261.55,138.19Zm0-19.28a77.64,77.64,0,0,0,.12,9.16c.14,1.17,1.63,3.12,2.5,3.11a133.25,133.25,0,0,0,18.65-1,10.8,10.8,0,0,0,8.93-11.67c-.43-5.26-2.5-10.36-9.58-10.91-5.05-.39-10.12-.56-15.17-1-4.07-.37-6,1-5.51,5.33A60.15,60.15,0,0,1,261.56,118.91Z"/><path d="M456.4,141.25c-5.21,8.49-10.39,16.5-15.12,24.76-2.41,4.21-5.28,6.28-10.85,4.5,2.28-3.76,4.51-7.48,6.8-11.16,4.82-7.74,9.74-15.42,14.43-23.24a4.5,4.5,0,0,0-.17-3.85c-6.16-10.15-12.49-20.2-18.75-30.29a11.72,11.72,0,0,1-.71-1.83c4.13-.5,7.29-.93,9.74,3.56,4.41,8.09,9.64,15.74,14.92,24.21,3.24-5.12,6.24-9.77,9.16-14.46,1.89-3.07,3.85-6.12,5.45-9.34,2-4.09,5.05-5.24,9.9-3.62-1.09,1.89-2.08,3.7-3.15,5.46-4.85,8-9.47,16.18-14.71,23.94-2.43,3.6-1.91,6.07.22,9.4,6.51,10.15,12.71,20.51,19.06,30.83-5.44,2-7.2,1.36-9.82-3q-7.32-12.27-14.77-24.48C457.75,142.15,457.16,141.87,456.4,141.25Z"/><path d="M327.74,164.28h22c6,0,6,0,5.5,6.42h-34c-.08-1.28-.21-2.41-.21-3.54q0-31.33,0-62.68c0-2.41-.35-4.68,3.35-4.7s3.45,2.17,3.45,4.64q0,27,0,53.91Z"/><path d="M154,170.88H120.74c-.11-1.29-.28-2.4-.28-3.51q0-31.51,0-63c0-2.15-.6-4.48,3-4.52,3.75,0,3.3,2.39,3.3,4.73,0,18.38.09,36.77-.07,55.15,0,3.66,1,4.85,4.72,4.67,5.83-.28,11.68-.08,17.52-.07S154.82,164.29,154,170.88Z"/><path d="M348.45,244.42c-1.47-1-3.38-1.65-4.33-3-4.24-6-8.22-12.28-13.24-18.31,0,5.57.12,11.14-.09,16.69-.05,1.35-1.19,2.66-1.83,4-.59-1.39-1.67-2.77-1.7-4.18-.16-7.69-.08-15.39-.08-23.09l1.16-1.06c1.55,1,3.57,1.7,4.57,3.11,3.81,5.32,7.28,10.88,10.89,16.35.45.67,1,1.29,2.17,2.87,0-6.91-.1-12.68.08-18.45,0-1.11,1.13-2.19,1.73-3.29.64,1.06,1.81,2.11,1.84,3.18.15,8,.08,16,.08,24Z"/><path d="M161.92,34.47C161.84,43,156.21,49,148.32,49S135,42.82,135,34.23s6-15.07,13.78-14.89C156.29,19.52,162,26.08,161.92,34.47Zm-23-.33c0,7,3.49,11.42,9.27,11.49,5.93.08,9.93-4.59,9.85-11.51s-3.88-11.23-9.65-11.25S139,27.11,139,34.14Z"/><path d="M310.07,229.89c0,8.62-5.64,14.85-13.34,14.85s-13.35-6.33-13.38-14.85,5.61-14.78,13.37-14.79S310.1,221.22,310.07,229.89Zm-3.87-.08c0-6.9-3.68-11.34-9.41-11.36-5.55,0-9.73,4.72-9.84,11.18-.12,6.67,4.12,11.64,9.87,11.59S306.21,236.73,306.2,229.81Z"/><path d="M173.62,233.53c1.89,1.56,3.28,2.23,3.93,3.34,2.39,4.09,8.79,6,12.51,3.23a5,5,0,0,0,1.85-4,5.92,5.92,0,0,0-3-3.75c-2.36-1-5.08-1.26-7.62-1.95-3.59-1-6.71-2.64-6.76-6.93s2.65-6.52,6.45-7.82c6.46-2.19,13,1.49,13.73,9.07-1.73-1.13-2.78-1.84-3.85-2.52-2-1.25-3.79-3.06-5.94-3.58-3.11-.75-6.21.55-6.58,4.06-.35,3.34,2.79,3.91,5.38,4.62a52.25,52.25,0,0,1,8.71,2.76,7,7,0,0,1,2.8,9.77c-1.88,3.48-8.07,5.78-12.82,4.76C177.17,243.43,174.16,240.15,173.62,233.53Z"/><path d="M293.83,37.23c.24,7-3.18,10.82-8.76,11.63-6.22.9-11.74-2.1-13.82-7.51-3.56-9.23,0-18.33,8.36-21.39,6.28-2.3,13.37,1.63,15,9.6-2-1.29-3.57-1.78-4.34-2.83-4-5.47-11.43-5.31-14.8.53a13.41,13.41,0,0,0-.11,13.79c1.78,3.36,4.6,4.73,8.29,4.57s5.78-2.19,7.17-5.47C291.33,39,292.8,38.19,293.83,37.23Z"/><path d="M209.71,243.2c3.29-8.38,6.48-16.8,9.93-25.11,1.17-2.83,4.53-3.06,5.61-.45,3.5,8.45,6.72,17,10.06,25.58-3,1.49-4.13.18-5-2.32-1.73-4.94-8.06-7.74-12.73-5.21-1.69.92-2.15,3.91-3.48,5.73a16.92,16.92,0,0,1-3.44,2.79Zm8.16-11.32H227l-4.63-12.07Z"/><path d="M331.57,47.71c3.31-8.59,6.49-17,9.88-25.35a3.56,3.56,0,0,1,2.92-1.77A4.87,4.87,0,0,1,347.49,23c1.95,4.38,3.58,8.91,5.31,13.39,1.41,3.65,2.78,7.32,4.26,11.24-2.54,1.28-3.75.56-4.77-2.05-2.14-5.44-7.09-7.71-12.59-5.52-1.46.58-2.31,3-3.15,4.77C335.6,46.78,335.24,49.27,331.57,47.71Zm8.09-11.3h9.11c-1.52-4.17-2.86-7.87-4.52-12.45Z"/><path d="M182.53,23.45v8.71a52.22,52.22,0,0,1,6.74.07,42.12,42.12,0,0,1,6,1.63,44.66,44.66,0,0,1-5.73,1.39,66.79,66.79,0,0,1-7,.06V47.64l-1.34.85c-.82-.91-2.31-1.79-2.34-2.72q-.28-11.37,0-22.75a3.61,3.61,0,0,1,2.51-2.47c4.51-.26,9-.18,13.57-.05.74,0,1.45,1,2.18,1.47-.74.49-1.47,1.39-2.22,1.41C190.82,23.53,186.78,23.45,182.53,23.45Z"/><path d="M217.51,23.45v8.72c3.48,0,6.81-.11,10.13.08.88,0,1.71,1,2.57,1.55-.88.5-1.74,1.38-2.65,1.43-3.18.18-6.39.07-10.06.07V47.59l-1.18.94c-.93-.84-2.63-1.65-2.65-2.51-.21-8.29-.13-16.6-.13-25.58,5.67,0,11-.05,16.36.06.66,0,1.31.81,2,1.24-.67.57-1.32,1.6-2,1.63C225.82,23.53,221.76,23.45,217.51,23.45Z"/><path d="M372.24,48.27c0-8.91-.05-17.33.1-25.74,0-.69,1.35-1.37,2.07-2.05C375,21.31,376,22.12,376,23c.16,5.24.08,10.49.08,15.74,0,1.88,0,3.76,0,6.28,4.16,0,8-.1,11.91.06.91,0,1.78.92,2.67,1.41-.77.61-1.53,1.72-2.32,1.74C383.18,48.35,378,48.27,372.24,48.27Z"/><path d="M254.4,240.6h14.45l.63,1.13c-.81.71-1.59,2-2.43,2-5.22.19-10.45.1-16.33.1,0-8.9,0-17.44.08-26,0-.62,1.2-1.21,1.85-1.82.58.81,1.64,1.59,1.66,2.41.16,5.25.09,10.5.09,15.75Z"/><path d="M252.61,34.73c0,3.64.13,7.29-.09,10.92-.06.89-1.25,1.71-1.93,2.57-.58-.81-1.65-1.61-1.66-2.43-.13-7.57-.14-15.15,0-22.72,0-.88,1.28-1.73,2-2.59.57,1,1.58,1.9,1.63,2.89C252.73,27.15,252.61,30.94,252.61,34.73Z"/><path d="M312.19,33.86c0-3.5-.13-7,.08-10.49.06-1,1.09-1.92,1.68-2.88.69.86,1.95,1.7,2,2.58.15,7.57.14,15.15,0,22.72,0,.82-1.09,1.62-1.67,2.43-.69-.86-1.93-1.68-2-2.57C312.06,41.73,312.19,37.79,312.19,33.86Z"/></svg>