<svg id="Layer_1" data-name="Layer 1" xmlns="http://www.w3.org/2000/svg" width="512" height="256" viewBox="0 0 512 256"><defs><style>.cls-1{fill:#fff;}</style></defs><title>zenz</title><path d="M372.47,205.83c-3.23-.48-6.5-.8-9.7-1.45A73.22,73.22,0,0,1,323.83,183a71.32,71.32,0,0,1-19.21-36.33c-4.84-24.72,1-46.78,17.78-65.59a71.21,71.21,0,0,1,47.11-24c23.72-2.45,44.27,4.79,61.23,21.52a72.27,72.27,0,0,1,21.18,43.14c.26,2,.44,4,.67,6v7c-.08.5-.16,1-.22,1.52-.28,2.45-.43,4.93-.85,7.36a74.78,74.78,0,0,1-60,61.1c-2.74.51-5.52.8-8.28,1.2Zm29.44-66.78-.37.12c-.28-.32-.57-.63-.84-.95q-8.55-10.27-17.09-20.54c-.25-.29-.58-.72-.88-.72-2.14-.07-4.28,0-6.48,0l.05,1.24c.61.11,1.16.19,1.69.33a3.77,3.77,0,0,1,3.11,3.75q0,9.71-.23,19.4c0,2.05-.89,2.89-2.93,3.09-1,.09-1.27.44-.9,1.37h10.51c.36-1-.05-1.3-1-1.37-2.31-.2-3-.89-3.26-3.18a7.69,7.69,0,0,1-.06-1c-.07-5.51-.15-11-.21-16.53a6.09,6.09,0,0,1,.12-.87c.32.36.54.59.74.84q8.79,10.85,17.55,21.71a1.78,1.78,0,0,0,2.22.75c0-.45,0-.92,0-1.4.05-7.38,0-14.77.18-22.15.07-3.45,0-4.2,3.82-4.84V117H397.15c-.33,1,.08,1.25,1,1.32,2.44.19,3.29.85,3.37,3C401.69,127.24,401.77,133.14,401.91,139.05Zm-51-20.9c.23,0,.42.12.61.14,2.79.35,3.1.56,3.14,3.3.09,6.43.07,12.86.08,19.29a17.83,17.83,0,0,1-.16,1.78,1.92,1.92,0,0,1-1.64,1.81c-.86.19-1.72.29-2.61.44v1.32h6.57c4.71,0,9.43,0,14.14,0,.4,0,1.08-.32,1.15-.61.57-2.15,1-4.32,1.49-6.46-1-.51-1.48-.37-1.82.62a17,17,0,0,1-1.31,2.54,3.8,3.8,0,0,1-3.18,2.08c-2.1.1-4.22.13-6.33,0a2,2,0,0,1-2.19-1.85c-.1-3.53,0-7.07,0-10.67,1.55,0,3.18-.08,4.81,0,3.22.18,3.22.21,4,3.23,0,.07.1.12.2.23l1.12-.06v-8.53c-.93-.28-1.4-.08-1.52.91s-.62,2.08-1.87,2.17c-2.29.16-4.6.22-7,.32,0-3.65,0-7.07,0-10.5,0-.73.32-1.19,1.16-1.17,2.08,0,4.15,0,6.23.09a3.22,3.22,0,0,1,3.17,2.3l1,3c.46-.42,1.13-.74,1.13-1,0-2-.2-3.89-.33-5.9H350.89Zm-10.09.65c-.21.33-.41.66-.64,1q-8.7,12.41-17.39,24.81a5,5,0,0,0-.44,1.25,5.33,5.33,0,0,0,1.19.3c5.6,0,11.19,0,16.79,0h5.63l1.59-7.67-1.37-.26c-.44,1-.82,1.86-1.23,2.72a5.4,5.4,0,0,1-5,3.36c-1.64.06-3.27.2-4.91.19-2.32,0-4.64-.11-7.18-.19.36-.55.53-.86.73-1.14q8.59-12.33,17.17-24.67a5.73,5.73,0,0,0,.5-1.25,5.66,5.66,0,0,0-1.31-.31c-5.47,0-10.94,0-16.42-.05a8.85,8.85,0,0,1-2.46-.64,11.94,11.94,0,0,1-1.46-.68c-.2,3-.37,5.7-.56,8.46l1.23.07c.55-1.28,1-2.5,1.6-3.68a2.59,2.59,0,0,1,2.36-1.59C333.07,118.78,336.89,118.8,340.8,118.8Zm75.84,25.5c.35-.54.54-.88.76-1.2q8.55-12.28,17.11-24.58a6.35,6.35,0,0,0,.53-1.25,6,6,0,0,0-1.4-.34c-5.32,0-10.64,0-15.95,0-1.14,0-2.34.18-3.17-1-.14-.21-.71-.13-1.15-.19-.19,2.83-.37,5.52-.55,8.28l1.3.09c.37-1,.7-1.92,1.06-2.84a3.54,3.54,0,0,1,3.42-2.53l10.78-.12c.05,0,.09.1.19.23-1.2,1.75-2.41,3.53-3.65,5.29q-7.23,10.29-14.48,20.57a1.67,1.67,0,0,0-.34,1.05c0,.16.55.38.85.38q11,0,21.95,0a1.13,1.13,0,0,0,.88-.64c.55-2.28,1-4.58,1.52-7l-1.38-.31c-.4.91-.77,1.75-1.15,2.58a5.51,5.51,0,0,1-5.11,3.53c-1.67.05-3.35.19-5,.18C421.37,144.48,419.11,144.38,416.64,144.3Z"/><path d="M154.73,117.09c4.4,0,8.72-.21,13,.06,5.17.32,8.35,3.47,9.93,8.24a19.66,19.66,0,0,1,.09,12.59c-1.68,5.12-5.13,8.12-10.61,8.33-4.11.16-8.22,0-12.43,0Zm4.12,3.31v22.5c2.73-.13,5.37-.16,8-.4a7.1,7.1,0,0,0,6-4.09c2.32-4.66,2-9.36-.34-13.91a6.66,6.66,0,0,0-5.55-3.71C164.26,120.56,161.58,120.52,158.85,120.4Z"/><path d="M150.22,131.47a65,65,0,0,1-1.36,7.13A11.54,11.54,0,0,1,138,147.06a21.34,21.34,0,0,1-5.36-.31,10.84,10.84,0,0,1-8.59-7.82,22.48,22.48,0,0,1-.07-13.79c1.7-5.44,5.56-8.37,11.14-8.88,5.12-.47,9.63.84,12.54,5.51a16.34,16.34,0,0,1,2.27,8.33c0,.44,0,.88,0,1.32Zm-4.46-.16c-.3-1.83-.45-3.71-.93-5.51a7.62,7.62,0,0,0-7.33-6c-4.4-.24-7.59,1.46-9,5.11a18.6,18.6,0,0,0,0,13.44,7,7,0,0,0,5.38,4.8c5.27,1.07,9.58-.68,11-6.39C145.3,135,145.46,133.19,145.76,131.31Z"/><path d="M98.53,117.15c4.82,0,9.53-.22,14.22.08a6.36,6.36,0,0,1,6,5.08,7.19,7.19,0,0,1-2.34,7.78,16.09,16.09,0,0,1-2.39,1.44,3.2,3.2,0,0,0,.48.26,4.87,4.87,0,0,1,3.27,4.07c.55,3.14,1.11,6.27,1.68,9.41.06.34.19.68.31,1.12-1.33,0-2.57.06-3.79,0a1.3,1.3,0,0,1-.82-.88c-.45-2.47-.82-5-1.21-7.44-.56-3.65-1.77-4.72-5.46-4.78-2,0-3.9,0-6,0v13.06h-4Zm4,12.28c2.94,0,5.77.15,8.58-.05a3.71,3.71,0,0,0,3.59-4c0-2.53-1.11-4.35-3.43-4.56-2.88-.26-5.79-.06-8.74-.06Z"/><path d="M283.13,124.48h-4c-1.13-3.61-3.39-5-7.58-4.34a10.15,10.15,0,0,0-3.45,1.21,3.75,3.75,0,0,0-1.77,3.8,3.3,3.3,0,0,0,2.49,3c2.51.78,5.07,1.42,7.6,2.13.77.21,1.54.42,2.3.67a7.56,7.56,0,0,1,3.9,11.82,9,9,0,0,1-4.85,3.51,17.26,17.26,0,0,1-10,.2c-4.17-1.15-6.13-4-6.18-8.87,1.26,0,2.52,0,3.78,0,.2,0,.53.48.54.74.05,2.93,2.28,4.66,5.32,5a9.91,9.91,0,0,0,6.06-.9,4.79,4.79,0,0,0,2.39-5.19,3.44,3.44,0,0,0-2.48-2.68c-1.89-.63-3.83-1.11-5.74-1.65-1.5-.43-3-.77-4.49-1.28-2.78-1-4.62-2.83-4.95-5.86a7.05,7.05,0,0,1,3.21-7.15,14.11,14.11,0,0,1,14.16-.9A6.68,6.68,0,0,1,283.13,124.48Z"/><path d="M182.51,117h4.07v1.26c0,5.83,0,11.66,0,17.49,0,2.94.81,5.52,3.71,6.82a9.33,9.33,0,0,0,9.37-.46,6.11,6.11,0,0,0,2.73-5.34c.07-6.07.05-12.14.06-18.21V117h4v18.68c0,6.73-4.64,11.44-11.38,11.38a20.09,20.09,0,0,1-6-.95,9,9,0,0,1-6.59-8.78C182.39,130.6,182.51,123.85,182.51,117Z"/><path d="M77.71,133.45V146.3h-4V117a1.64,1.64,0,0,1,.41-.1c3.91,0,7.83,0,11.74,0,3.15,0,5.69,1.33,7,4.3a8.39,8.39,0,0,1-.84,8.94c-2,2.68-5,3.15-8,3.26C81.93,133.51,79.86,133.45,77.71,133.45Zm0-3.83c2.62,0,5.17.17,7.68-.05s3.92-2.16,3.89-4.76-1.32-4.18-4-4.38c-2.48-.18-5,0-7.53,0Z"/><path d="M229.34,138.49h4.41a8,8,0,0,1-3.06,5.75A12.13,12.13,0,0,1,211.45,139a21,21,0,0,1,.3-14.54c2.21-5.72,7.4-8.6,13.49-7.65a11.23,11.23,0,0,1,5.78,2.38,7.64,7.64,0,0,1,2.73,6c-1.22,0-2.45,0-3.68,0a1,1,0,0,1-.73-.55,5.17,5.17,0,0,0-4.66-4.33c-2.79-.43-5.42,0-7.22,2.39a11.94,11.94,0,0,0-2,4,21.17,21.17,0,0,0-.08,10.43c1.13,4.66,4.92,7,9.59,6a5,5,0,0,0,4.11-3.86C229.14,139,229.25,138.73,229.34,138.49Z"/><path d="M259.88,117v3.51h-9.76v25.82H246V120.52H236.2V117Z"/><path d="M188.11,97.87a38.88,38.88,0,0,1-1.32,5.31A7.18,7.18,0,0,1,180,107.8c-3.48.18-6.36-.94-7.92-4.21a12.87,12.87,0,0,1,0-11.43c1.58-3.33,4.5-4.45,8-4.24a7.19,7.19,0,0,1,6.76,4.69A39.65,39.65,0,0,1,188.11,97.87Zm-2,0a33.54,33.54,0,0,0-1-4.23,6.23,6.23,0,0,0-11.48-.39,10.9,10.9,0,0,0,0,9.27,6.22,6.22,0,0,0,11.42-.38A31.62,31.62,0,0,0,186.14,97.87Z"/><path d="M256.87,104.85V88.48h1.7v18.71c-2,.37-2,.37-3-1.31L247,92.3a2.43,2.43,0,0,0-.82-.85v15.82h-1.67V88.51a2.13,2.13,0,0,1,2.77,1.13c2.85,4.71,5.83,9.34,8.77,14C256.24,104,256.46,104.26,256.87,104.85Z"/><path d="M222.1,93c-1.42.33-2.16.32-2.7-1-1.06-2.6-5.39-3.13-7.81-1.11a6.15,6.15,0,0,0-2.34,4,22.14,22.14,0,0,0,0,6c.65,3.69,3.92,5.7,7.82,5.13,1-.15,2-.44,3.07-.68V99.2h-4.66V97.59h6.37a4.22,4.22,0,0,1,.11.75c0,2.47,0,5,0,7.42a1.35,1.35,0,0,1-.61,1.06,15.36,15.36,0,0,1-7.88.85,6.62,6.62,0,0,1-5.17-3.85,12.8,12.8,0,0,1,.22-12.08c2.41-4.41,8.69-5.26,11.95-1.68A16,16,0,0,1,222.1,93Z"/><path d="M200.81,97.34c2,.63,2.61,2,2.8,3.74l.72,6.15c-1.75.29-1.91.18-2.14-1.73-.2-1.59-.31-3.18-.55-4.75s-.87-2.33-2.46-2.43c-1.94-.11-3.9,0-6,0v9h-1.72V88.39c.5,0,1,0,1.5,0a72.89,72.89,0,0,1,7.4.27c2.54.34,3.77,2.1,3.75,4.62a3.66,3.66,0,0,1-1.86,3.27C201.87,96.79,201.45,97,200.81,97.34Zm-7.57-.69c2.24-.13,4.43-.14,6.58-.43a2.67,2.67,0,0,0,2.39-3,2.56,2.56,0,0,0-2.46-2.85c-2.15-.2-4.33,0-6.51,0Z"/><path d="M241.76,107.21c-1.36.44-2-.07-2.42-1.33s-.68-2.79-1.57-3.39-2.46-.18-3.74-.19c-1.55,0-3.11,0-4.67,0a1,1,0,0,0-1.14.77c-.33,1-.86,1.9-1.11,2.9-.34,1.28-1.06,1.64-2.38,1.26,1-2.57,2.05-5.15,3.08-7.72,1.37-3.44,2.76-6.88,4.09-10.33a1,1,0,0,1,1.25-.77c.56,0,1.12-.15,1.45.66,2.33,5.93,4.72,11.84,7.09,17.75A2.63,2.63,0,0,1,241.76,107.21ZM233.24,90c-1.42,3.65-2.76,7.07-4.12,10.56h8.17Z"/><path d="M283.22,92.79c-1.07.29-1.69.14-2.16-1-.88-2.12-4.23-2.85-6.74-1.61a5.66,5.66,0,0,0-2.83,3.12,12.24,12.24,0,0,0,0,9.12,5.69,5.69,0,0,0,7.05,3.45,3.64,3.64,0,0,0,2.7-2.16c.43-1.21,1.18-1.17,2.26-1a5.79,5.79,0,0,1-3.38,4.35,7.64,7.64,0,0,1-10.69-4.75,14,14,0,0,1,.15-9.4c1.78-4.77,6.35-5.92,10.29-4.57A4.61,4.61,0,0,1,283.22,92.79Z"/><path d="M224,185.33l4.21,12.5.28,0c1.08-4.2,2.15-8.39,3.24-12.6h1.22l-3,11.61c-.1.39-.21.77-.31,1.16-.41,1.66-.41,1.66-2.19,1.47-1.37-4.22-2.75-8.45-4.23-13-.63,2-1.19,3.66-1.73,5.35-.66,2.09-1.31,4.19-2,6.28-.47,1.51-.48,1.51-2.29,1.36-1.22-4.68-2.46-9.41-3.72-14.23h1.37c1.09,4.26,2.18,8.49,3.35,13,.56-1.72,1-3.15,1.5-4.58.78-2.43,1.62-4.84,2.31-7.29C222.24,185.4,222.72,185,224,185.33Z"/><path d="M136.59,185.22c1.84,0,3.59-.06,5.34,0a3.71,3.71,0,0,1,3.63,2.61c.41,1.65-.16,2.76-2.23,4.18a3.6,3.6,0,0,1,2.94,3.44,3.79,3.79,0,0,1-3.72,4.12c-.24,0-.48,0-.72,0h-5.24Zm1.28,13.27c1.77-.11,3.48-.09,5.15-.35,1.31-.21,1.83-1.12,1.84-2.56s-.52-2.38-1.79-2.6c-1.71-.28-3.45-.31-5.2-.44Zm0-7a43.33,43.33,0,0,0,4.66-.37,2.13,2.13,0,0,0,1.75-2.38,2.05,2.05,0,0,0-1.84-2.16c-1.51-.19-3-.19-4.57-.27Z"/><path d="M82.35,192a22.4,22.4,0,0,1,.4-2.45A5.84,5.84,0,0,1,88.58,185c3.13,0,5.44,1.48,6.14,4.44a14,14,0,0,1,.24,5C94.45,198,92,200,88.44,199.84c-3.26-.1-5.56-2.38-6-5.89C82.42,193.4,82.41,192.84,82.35,192Zm11.63.44a25.5,25.5,0,0,0-.9-3.47,4.33,4.33,0,0,0-4.44-2.8,4.4,4.4,0,0,0-4.24,2.93,8.35,8.35,0,0,0,0,6.63,4.39,4.39,0,0,0,4.27,2.9A4.31,4.31,0,0,0,93,195.91,24.71,24.71,0,0,0,94,192.45Z"/><path d="M234.67,192.1c.09-.63.15-1.47.33-2.28a5.89,5.89,0,0,1,5.87-4.84c3.22-.06,5.55,1.55,6.23,4.64a13.81,13.81,0,0,1,.16,4.84c-.52,3.58-2.95,5.47-6.47,5.38-3.23-.09-5.52-2.29-6-5.74C234.73,193.51,234.73,192.9,234.67,192.1Zm11.62.36a24.74,24.74,0,0,0-.9-3.49,4.33,4.33,0,0,0-4.45-2.79,4.4,4.4,0,0,0-4.24,3,8.43,8.43,0,0,0,0,6.54,4.4,4.4,0,0,0,4.13,2.95,4.34,4.34,0,0,0,4.51-2.72A24.34,24.34,0,0,0,246.29,192.46Z"/><path d="M275.33,185.3a39.4,39.4,0,0,1,5.11,0c4.19.55,6.13,2.92,6.08,7.14,0,4.57-2.59,7.09-7.17,7.12h-4Zm1.25,13.1c1.26,0,2.37,0,3.49,0,2.43-.11,4.26-1.33,4.67-3.55a15.11,15.11,0,0,0-.05-4.93,3.6,3.6,0,0,0-2.82-3,49.57,49.57,0,0,0-5.29-.71Z"/><path d="M100,199.53H98.77V185.35c2.12,0,4.19-.13,6.24,0a3.13,3.13,0,0,1,3.16,2.75c.26,1.81-.25,2.67-2.16,3.66-.06,0-.11.11-.23.24,1.63.5,2,1.81,2.11,3.25s.31,2.82.47,4.25H107c-.19-1.52-.37-3-.55-4.51-.23-1.85-.78-2.36-2.63-2.38-1.23,0-2.46,0-3.84,0Zm0-13.1v4.88a42.66,42.66,0,0,0,4.67,0,2.19,2.19,0,0,0,2.14-2.53,2.33,2.33,0,0,0-2.43-2.31C103,186.37,101.55,186.43,100,186.43Z"/><path d="M206.24,199.53c-1,.32-1.46-.11-1.54-1.13-.1-1.23-.24-2.46-.41-3.69-.21-1.48-.8-2-2.3-2.05-1.34,0-2.69,0-4.14,0v6.85l-1.2.11V185.28c1.95,0,3.9-.13,5.83,0,2.13.17,3.24,1.14,3.53,2.67.36,1.87-.19,2.82-2.41,4,1.73.59,2,2,2.17,3.48C205.89,196.83,206.08,198.17,206.24,199.53Zm-8.35-8a47,47,0,0,0,4.84-.29,2.13,2.13,0,0,0,2-2.53,2.23,2.23,0,0,0-2.23-2.23c-1.5-.1-3,0-4.58,0Z"/><path d="M251.1,185.28c2,0,3.94-.13,5.84,0,2.12.17,3.23,1.14,3.52,2.67.36,1.87-.18,2.8-2.4,4,1.73.58,2,2,2.16,3.48.13,1.34.31,2.68.47,4-.91.3-1.46,0-1.54-1.14s-.24-2.47-.41-3.69c-.21-1.48-.8-2-2.3-2.05-1.35,0-2.7,0-4.14,0v6.86l-1.2.1Zm1.23,6.26c1.72-.1,3.32-.08,4.88-.31a2.13,2.13,0,0,0,2-2.45,2.2,2.2,0,0,0-2.16-2.29c-1.53-.12-3.08,0-4.67,0Z"/><path d="M128.65,199.49c-1,.29-1.45,0-1.77-.84-1.13-2.9-1.16-2.89-4.21-2.89a1.92,1.92,0,0,1-.24,0c-2.63-.41-4.66.07-5.14,3.19-.05.34-.79.56-1.21.83l-.26-.3q2-5,4-10.09c.47-1.18.9-2.39,1.44-3.54a1.3,1.3,0,0,1,1-.59,1.22,1.22,0,0,1,1,.54C125,190.33,126.82,194.88,128.65,199.49Zm-6.46-13c-1.09,2.8-2.1,5.38-3.12,8h6.19Z"/><path d="M151.15,198.4h7.35l.09,1.13h-8.73V185.32h8.35v1.09h-7.09v5.23h6.82v1.22h-6.79Z"/><path d="M193.08,198.35v1.17h-8.67V185.28h8.35l.07,1.12h-7.16v5.23h6.81l.07,1.22H185.7v5.5Z"/><path d="M80,186.4H73.25v5h6.44l.12,1.21h-6.6v6.88H72V185.31h8Z"/><path d="M263.61,88.21h1.59v19.05h-1.59Z"/><path d="M272.61,199.55h-8.42V185.28h1.21v13.11h7.21Z"/><path d="M166.22,199.56h-1.3v-13.1h-4.61l-.11-1.17h10.48v1.11h-4.46Z"/><path d="M177.25,199.54h-1.32V186.42h-4.6v-1.14H181.7l.09,1.12h-4.54Z"/><path class="cls-1" d="M401.91,139.05c-.14-5.91-.22-11.81-.43-17.71-.08-2.17-.93-2.83-3.37-3-.88-.07-1.29-.32-1-1.32h10.52v1.11c-3.82.64-3.75,1.39-3.82,4.84-.14,7.38-.13,14.77-.18,22.15,0,.48,0,1,0,1.4a1.78,1.78,0,0,1-2.22-.75Q392.71,134.86,383.9,124c-.2-.25-.42-.48-.74-.84a6.09,6.09,0,0,0-.12.87c.06,5.51.14,11,.21,16.53a7.69,7.69,0,0,0,.06,1c.28,2.29.95,3,3.26,3.18.93.07,1.34.35,1,1.37H377c-.37-.93-.07-1.28.9-1.37,2-.2,2.89-1,2.93-3.09q.19-9.69.23-19.4a3.77,3.77,0,0,0-3.11-3.75c-.53-.14-1.08-.22-1.69-.33l-.05-1.24c2.2,0,4.34,0,6.48,0,.3,0,.63.43.88.72q8.55,10.26,17.09,20.54c.27.32.56.63.84.95Z"/><path class="cls-1" d="M350.89,118.15v-1.24H371c.13,2,.3,4,.33,5.9,0,.31-.67.63-1.13,1l-1-3a3.22,3.22,0,0,0-3.17-2.3c-2.08-.07-4.15,0-6.23-.09-.84,0-1.16.44-1.16,1.17,0,3.43,0,6.85,0,10.5,2.38-.1,4.69-.16,7-.32,1.25-.09,1.74-1.08,1.87-2.17s.59-1.19,1.52-.91v8.53l-1.12.06c-.1-.11-.18-.16-.2-.23-.81-3-.81-3-4-3.23-1.63-.09-3.26,0-4.81,0,0,3.6-.07,7.14,0,10.67a2,2,0,0,0,2.19,1.85c2.11.08,4.23.05,6.33,0a3.8,3.8,0,0,0,3.18-2.08,17,17,0,0,0,1.31-2.54c.34-1,.86-1.13,1.82-.62-.47,2.14-.92,4.31-1.49,6.46-.07.29-.75.61-1.15.61-4.71,0-9.43,0-14.14,0h-6.57v-1.32c.89-.15,1.75-.25,2.61-.44a1.92,1.92,0,0,0,1.64-1.81,17.83,17.83,0,0,0,.16-1.78c0-6.43,0-12.86-.08-19.29,0-2.74-.35-3-3.14-3.3C351.31,118.27,351.12,118.2,350.89,118.15Z"/><path class="cls-1" d="M340.8,118.8c-3.91,0-7.73,0-11.55,0a2.59,2.59,0,0,0-2.36,1.59c-.57,1.18-1.05,2.4-1.6,3.68l-1.23-.07c.19-2.76.36-5.44.56-8.46a11.94,11.94,0,0,0,1.46.68,8.85,8.85,0,0,0,2.46.64c5.48.06,10.95,0,16.42.05a5.66,5.66,0,0,1,1.31.31,5.73,5.73,0,0,1-.5,1.25q-8.56,12.35-17.17,24.67c-.2.28-.37.59-.73,1.14,2.54.08,4.86.18,7.18.19,1.64,0,3.27-.13,4.91-.19a5.4,5.4,0,0,0,5-3.36c.41-.86.79-1.74,1.23-2.72l1.37.26-1.59,7.67h-5.63c-5.6,0-11.19,0-16.79,0a5.33,5.33,0,0,1-1.19-.3,5,5,0,0,1,.44-1.25q8.69-12.42,17.39-24.81C340.39,119.46,340.59,119.13,340.8,118.8Z"/><path class="cls-1" d="M416.64,144.3c2.47.08,4.73.18,7,.19,1.67,0,3.35-.13,5-.18a5.51,5.51,0,0,0,5.11-3.53c.38-.83.75-1.67,1.15-2.58l1.38.31c-.51,2.39-1,4.69-1.52,7a1.13,1.13,0,0,1-.88.64q-11,.06-21.95,0c-.3,0-.84-.22-.85-.38a1.67,1.67,0,0,1,.34-1.05q7.23-10.29,14.48-20.57c1.24-1.76,2.45-3.54,3.65-5.29-.1-.13-.14-.23-.19-.23l-10.78.12a3.54,3.54,0,0,0-3.42,2.53c-.36.92-.69,1.85-1.06,2.84l-1.3-.09c.18-2.76.36-5.45.55-8.28.44.06,1,0,1.15.19.83,1.16,2,1,3.17,1,5.31,0,10.63,0,15.95,0a6,6,0,0,1,1.4.34,6.35,6.35,0,0,1-.53,1.25Q426,130.82,417.4,143.1C417.18,143.42,417,143.76,416.64,144.3Z"/></svg>